Coordinates
version=1
nRows=21
nColumns=22
inDegrees=yes

Units are S.I. units (second, meters, Newtons, ...)
If the header above contains a line with 'inDegrees', this indicates whether rotational values are in degrees (yes) or radians (no).

endheader
time	pelvis_tilt	pelvis_list	pelvis_rotation	pelvis_tx	pelvis_ty	pelvis_tz	hip_flexion_r	hip_adduction_r	hip_rotation_r	knee_angle_r	ankle_angle_r	subtalar_angle_r	hip_flexion_l	hip_adduction_l	hip_rotation_l	knee_angle_l	ankle_angle_l	subtalar_angle_l	lumbar_extension	lumbar_bending	lumbar_rotation
      2.96000000	      3.34889169	     -1.86254794	     98.14276077	      0.27481220	      0.93838794	     -0.55743771	      2.11715651	      5.31825349	    -11.69653585	     -5.62636177	      6.74103105	     -1.11058542	     12.15181928	     -4.56361635	     -5.47499879	    -22.39317462	     11.69621865	     -2.90838257	     -5.53356258	      1.75049028	     -3.51356506
      2.97000000	      3.24097079	     -1.87472408	     98.20092516	      0.27389944	      0.93854631	     -0.55822771	      2.08126528	      5.15139821	    -11.65950298	     -5.68552991	      6.80555942	     -1.09303763	     11.89426647	     -4.36392316	     -5.45604939	    -22.03105817	     11.65976111	     -2.96941672	     -5.61289667	      1.62069562	     -3.50313622
      2.98000000	      3.13344355	     -1.88667816	     98.26267630	      0.27302197	      0.93870591	     -0.55900729	      2.05379686	      4.98602129	    -11.63347274	     -5.75995910	      6.87383411	     -1.07816264	     11.63225894	     -4.16723185	     -5.43418013	    -21.65762831	     11.61493290	     -3.02713406	     -5.68599685	      1.49224679	     -3.50190242
      2.99000000	      3.02962473	     -1.91265169	     98.33061685	      0.27216999	      0.93884284	     -0.55976032	      2.05215769	      4.82247443	    -11.61793785	     -5.85048809	      6.94211628	     -1.06718366	     11.38586646	     -3.97437426	     -5.40684509	    -21.27901876	     11.56663923	     -3.07354328	     -5.73740881	      1.36648882	     -3.51716251
      3.00000000	      2.94582313	     -1.97518665	     98.40041636	      0.27133605	      0.93891322	     -0.56046672	      2.10491075	      4.67286472	    -11.61293683	     -5.95674730	      6.96298395	     -1.06480277	     11.18982685	     -3.79851537	     -5.36547866	    -20.91138906	     11.56687536	     -3.09279861	     -5.73990979	      1.26283433	     -3.53004702
      3.01000000	      2.84215694	     -2.03042189	     98.46856152	      0.27053709	      0.93900553	     -0.56113761	      2.15718491	      4.50267446	    -11.63908290	     -6.07934571	      7.05092191	     -1.05553743	     10.97308658	     -3.60793040	     -5.34865359	    -20.51807036	     11.49373106	     -3.12521568	     -5.75887483	      1.13276452	     -3.57262527
      3.02000000	      2.74105338	     -2.06374797	     98.53551071	      0.26973005	      0.93912436	     -0.56178863	      2.18575031	      4.33695305	    -11.68169586	     -6.20166376	      7.18516572	     -1.03766655	     10.73821652	     -3.42888559	     -5.36611596	    -20.13256154	     11.38350139	     -3.17918932	     -5.80128594	      1.01829603	     -3.64090117
      3.03000000	      2.65175381	     -2.13145076	     98.59543563	      0.26894998	      0.93918683	     -0.56239236	      2.25848561	      4.17804448	    -11.73294105	     -6.32524159	      7.26553391	     -1.02381222	     10.53766020	     -3.25723113	     -5.37159859	    -19.73632986	     11.31666828	     -3.21762882	     -5.80277151	      0.91122829	     -3.70259384
      3.04000000	      2.56603709	     -2.20758696	     98.65300050	      0.26818900	      0.93923260	     -0.56296187	      2.34281528	      4.02218161	    -11.79408592	     -6.44904083	      7.34805710	     -1.00860587	     10.34373484	     -3.08960294	     -5.38231512	    -19.33110948	     11.24456823	     -3.25304193	     -5.79503974	      0.80646137	     -3.77719543
      3.05000000	      2.48965635	     -2.29965898	     98.70557120	      0.26744338	      0.93924826	     -0.56350402	      2.43998037	      3.87539180	    -11.86277875	     -6.55617206	      7.38562767	     -0.99972456	     10.15899072	     -2.92841841	     -5.38899289	    -18.90767163	     11.20853153	     -3.27546356	     -5.76576699	      0.71016125	     -3.84647117
      3.06000000	      2.41027938	     -2.38081882	     98.76466868	      0.26669951	      0.93927839	     -0.56403228	      2.51851673	      3.72811306	    -11.93000801	     -6.65430244	      7.46796082	     -0.98339493	      9.95181351	     -2.76519826	     -5.40162595	    -18.45984737	     11.11966049	     -3.30979090	     -5.74636370	      0.61357555	     -3.95620961
      3.07000000	      2.32347943	     -2.42309850	     98.82634209	      0.26596045	      0.93936550	     -0.56452514	      2.54773794	      3.58070408	    -11.99581223	     -6.73778865	      7.58200111	     -0.95406098	      9.69286834	     -2.59951397	     -5.42181379	    -17.99006030	     10.99047663	     -3.37120218	     -5.77943879	      0.51877090	     -4.10232582
      3.08000000	      2.24830907	     -2.48255484	     98.88486890	      0.26526010	      0.93941812	     -0.56500900	      2.58319715	      3.44848376	    -12.05470596	     -6.79033381	      7.63461302	     -0.93217232	      9.43908487	     -2.44334210	     -5.43257174	    -17.49221641	     10.90124392	     -3.41833998	     -5.78516958	      0.43081893	     -4.24346639
      3.09000000	      2.17677296	     -2.54183672	     98.93911911	      0.26456852	      0.93946167	     -0.56546497	      2.61346290	      3.32123909	    -12.10655884	     -6.82844893	      7.68160579	     -0.91066004	      9.17778889	     -2.28998022	     -5.44765440	    -16.97734701	     10.80668288	     -3.45984611	     -5.78860357	      0.35313019	     -4.40267941
      3.10000000	      2.10845778	     -2.59674738	     98.98987706	      0.26393308	      0.93950250	     -0.56592761	      2.62878570	      3.20410554	    -12.15416224	     -6.84611482	      7.72535811	     -0.88562159	      8.89860958	     -2.14490075	     -5.47210244	    -16.43756063	     10.70678067	     -3.50048101	     -5.79068678	      0.27110571	     -4.57123506
      3.11000000	      2.04473981	     -2.63947845	     99.02912836	      0.26331648	      0.93954848	     -0.56640644	      2.61647386	      3.09770000	    -12.19970541	     -6.83374519	      7.76653003	     -0.85167587	      8.59612907	     -2.00800542	     -5.51840981	    -15.88254339	     10.61094882	     -3.54395733	     -5.79819583	      0.20213020	     -4.74007231
      3.12000000	      1.98769723	     -2.70400674	     99.05529985	      0.26273975	      0.93955049	     -0.56684851	      2.63633893	      2.99500303	    -12.22124025	     -6.83057233	      7.79807587	     -0.82097513	      8.31723627	     -1.87471172	     -5.55775635	    -15.32426809	     10.50683318	     -3.57825859	     -5.77984136	      0.14008372	     -4.92183844
      3.13000000	      1.94027039	     -2.78245435	     99.06947510	      0.26222549	      0.93951536	     -0.56725932	      2.68117484	      2.90298367	    -12.21625036	     -6.83798429	      7.81947785	     -0.79539334	      8.06110133	     -1.75375284	     -5.59479816	    -14.77557075	     10.40313133	     -3.60727797	     -5.74200029	      0.08301932	     -5.11411006
      3.14000000	      1.91322762	     -2.88876202	     99.06843375	      0.26173528	      0.93941326	     -0.56768986	      2.74829244	      2.83021854	    -12.21592281	     -6.82180144	      7.81999270	     -0.78048265	      7.84510179	     -1.65262889	     -5.63999373	    -14.24680062	     10.35438203	     -3.62428469	     -5.65522897	      0.04976086	     -5.27629304
      3.15000000	      1.85532807	     -2.91999646	     99.05060767	      0.26128294	      0.93943483	     -0.56811232	      2.74075759	      2.73596878	    -12.19464774	     -6.82841978	      7.87637044	     -0.74104599	      7.54307095	     -1.53482292	     -5.70560787	    -13.71525434	     10.20083835	     -3.67472008	     -5.66686412	     -0.00410648	     -5.48021471
      3.16000000	      1.82600279	     -2.97552925	     99.01863079	      0.26087194	      0.93939494	     -0.56855621	      2.75104503	      2.67295684	    -12.16629232	     -6.80747208	      7.88987709	     -0.71289677	      7.29031833	     -1.44802613	     -5.77011998	    -13.22506737	     10.12398845	     -3.71206763	     -5.63213459	     -0.02715107	     -5.65063425
